<svg xmlns="http://www.w3.org/2000/svg" width="44" height="50" viewBox="0 0 44 50">
  <metadata><?xpacket begin="﻿" id="W5M0MpCehiHzreSzNTczkc9d"?>
<x:xmpmeta xmlns:x="adobe:ns:meta/" x:xmptk="Adobe XMP Core 5.6-c140 79.160451, 2017/05/06-01:08:21        ">
   <rdf:RDF xmlns:rdf="http://www.w3.org/1999/02/22-rdf-syntax-ns#">
      <rdf:Description rdf:about=""/>
   </rdf:RDF>
</x:xmpmeta>
                                                                                                    
                                                                                                    
                                                                                                    
                                                                                                    
                                                                                                    
                                                                                                    
                                                                                                    
                                                                                                    
                                                                                                    
                                                                                                    
                                                                                                    
                                                                                                    
                                                                                                    
                                                                                                    
                                                                                                    
                                                                                                    
                                                                                                    
                                                                                                    
                                                                                                    
                                                                                                    
                           
<?xpacket end="w"?></metadata>
<defs>
    <style>
      .cls-1 {
        fill: #fff;
        fill-rule: evenodd;
      }
    </style>
  </defs>
  <path id="_63-ecommerce_-_bill_payment_receipt" fill="#ffffff" data-name="63-ecommerce - bill payment receipt" class="cls-1" d="M1299,6783v-50h2l7.14,8,6.86-8,5.96,8,6.04-8,6.56,8,7.44-8h2v50h-44Zm42-47.16-6.02,6.57-1.62,1.63-1.39-1.83-4.97-5.89-4.45,5.89-1.6,2.12-1.6-2.14-4.4-5.91-5.25,5.96-1.42,1.8-1.59-1.66-5.69-6.48V6781h40v-45.16Zm-20.52,36.31v-9.68c-3.39-1-6.78-2.11-6.78-6.19,0-3.59,2.99-5.95,6.78-6.12v-3.15h1.53v3.15a9.265,9.265,0,0,1,6.48,3.22l-1.27,1.45a7.643,7.643,0,0,0-5.21-2.84v8.72c3.42,1,6.97,2.31,6.97,6.74,0,2.83-1.72,6.15-6.97,6.5v3.07h-1.53v-3.07a9.937,9.937,0,0,1-7.47-3.64l1.23-1.48A8.98,8.98,0,0,0,1320.48,6772.15Zm0-20.19c-2.76.14-4.78,1.86-4.78,4.22,0,2.42,2.19,3.31,4.78,4.08v-8.3Zm1.53,20.19c3.82-.31,4.98-2.7,4.98-4.57,0-2.8-2.29-3.83-4.98-4.66v9.23Z" transform="translate(-1299 -6733)"/>
</svg>
