<svg xmlns="http://www.w3.org/2000/svg" width="50" height="49.94" viewBox="0 0 50 49.94">
  <metadata><?xpacket begin="﻿" id="W5M0MpCehiHzreSzNTczkc9d"?>
<x:xmpmeta xmlns:x="adobe:ns:meta/" x:xmptk="Adobe XMP Core 5.6-c140 79.160451, 2017/05/06-01:08:21        ">
   <rdf:RDF xmlns:rdf="http://www.w3.org/1999/02/22-rdf-syntax-ns#">
      <rdf:Description rdf:about=""/>
   </rdf:RDF>
</x:xmpmeta>
                                                                                                    
                                                                                                    
                                                                                                    
                                                                                                    
                                                                                                    
                                                                                                    
                                                                                                    
                                                                                                    
                                                                                                    
                                                                                                    
                                                                                                    
                                                                                                    
                                                                                                    
                                                                                                    
                                                                                                    
                                                                                                    
                                                                                                    
                                                                                                    
                                                                                                    
                                                                                                    
                           
<?xpacket end="w"?></metadata>
<defs>
    <style>
      .cls-1 {
        fill: #fff;
        fill-rule: evenodd;
      }
    </style>
  </defs>
  <path id="_33-communication_-_phone_call" fill="#ffffff" data-name="33-communication - phone call" class="cls-1" d="M973.536,6767.58c-6.9,6.87-16.907,15.13-25.425,15.4H948.05c-3.041,0-8.2-7.24-8.256-7.31a4.321,4.321,0,0,1-.78-2.46,3.093,3.093,0,0,1,1.149-2.55c0.79-.56,9.1-6.09,10.059-6.7a3.023,3.023,0,0,1,1.6-.43,5.38,5.38,0,0,1,2.442.67c0.8,0.42,3.242,1.81,4.435,2.48a77.417,77.417,0,0,0,13.942-13.89c-0.684-1.19-2.073-3.62-2.5-4.43a5.3,5.3,0,0,1-.657-2.43,3.009,3.009,0,0,1,.407-1.58c0.626-1.02,6.191-9.36,6.73-10.13a3.08,3.08,0,0,1,2.549-1.2,4.313,4.313,0,0,1,2.476.83c0.073,0.04,7.333,5.29,7.333,8.28v0.07C988.712,6750.72,980.433,6760.7,973.536,6767.58Zm6.963-32.1a2.33,2.33,0,0,0-1.322-.46,1.15,1.15,0,0,0-.912.35c-0.573.81-6.09,9.09-6.662,10.03a1.04,1.04,0,0,0-.112.53,3.41,3.41,0,0,0,.428,1.51c0.354,0.67,1.5,2.69,2.459,4.36l0.637,1.1-0.739,1.04a78.736,78.736,0,0,1-14.427,14.38l-1.036.73-1.1-.63c-1.074-.61-3.59-2.04-4.375-2.45a3.476,3.476,0,0,0-1.515-.44,0.983,0.983,0,0,0-.53.12c-1,.63-9.281,6.15-9.964,6.64a1.171,1.171,0,0,0-.317.92,2.334,2.334,0,0,0,.421,1.32c2.384,3.33,5.544,6.41,6.616,6.45,6.131-.2,14.681-5.46,24.073-14.82,6.641-6.62,14.61-16.16,14.863-24.03C986.919,6740.96,983.384,6737.54,980.5,6735.48Z" transform="translate(-939 -6733.03)"/>
</svg>
