<?xml version="1.0" encoding="utf-8"?>
<!-- Generator: Adobe Illustrator 23.0.2, SVG Export Plug-In . SVG Version: 6.00 Build 0)  -->
<svg version="1.1" id="Layer_1" xmlns="http://www.w3.org/2000/svg" xmlns:xlink="http://www.w3.org/1999/xlink" x="0px" y="0px"
	 viewBox="0 0 2238.2 412.3" style="enable-background:new 0 0 2238.2 412.3;" xml:space="preserve">
<style type="text/css">
	.st0{fill-rule:evenodd;clip-rule:evenodd;fill:url(#SVGID_1_);}
	.st1{fill-rule:evenodd;clip-rule:evenodd;fill:url(#SVGID_2_);}
	.st2{fill-rule:evenodd;clip-rule:evenodd;fill:url(#SVGID_3_);}
	.st3{fill-rule:evenodd;clip-rule:evenodd;fill:url(#SVGID_4_);}
	.st4{fill-rule:evenodd;clip-rule:evenodd;fill:url(#SVGID_5_);}
	.st5{fill:#FFFFFF;}
</style>
<linearGradient id="SVGID_1_" gradientUnits="userSpaceOnUse" x1="-371.8994" y1="112.0378" x2="831.7987" y2="112.0378" gradientTransform="matrix(1 0 0 -1 0 411.6378)">
	<stop  offset="0" style="stop-color:#004278"/>
	<stop  offset="0.3186" style="stop-color:#004278"/>
	<stop  offset="0.35" style="stop-color:#004278"/>
	<stop  offset="0.3928" style="stop-color:#004F7F"/>
	<stop  offset="0.4779" style="stop-color:#00668B"/>
	<stop  offset="0.567" style="stop-color:#047A94"/>
	<stop  offset="0.66" style="stop-color:#148C9B"/>
	<stop  offset="0.7585" style="stop-color:#1E999F"/>
	<stop  offset="0.8661" style="stop-color:#24A2A2"/>
	<stop  offset="1" style="stop-color:#26A5A3"/>
</linearGradient>
<polygon class="st0" points="0,375.2 3.7,354.5 9.7,332.6 17.6,309.8 27.3,286.3 38.7,262.6 51.4,238.8 65.2,215.4 79.9,192.6 
	85.7,201.6 92.6,210.9 100.5,220.2 109.4,229.6 129.6,248.6 152.6,267.4 177.5,285.5 203.6,302.3 230.1,317.6 256.4,331 
	301.2,350.6 350.4,368.8 403.9,385.2 461.7,399.4 453.6,402.1 444.4,404.1 423,406.4 398,406.6 370,405 307.1,398.1 238.7,388.2 
	169.4,378.3 103.5,370.9 73.3,369.1 45.6,369 20.9,370.9 "/>
<linearGradient id="SVGID_2_" gradientUnits="userSpaceOnUse" x1="-274.2315" y1="172.1378" x2="805.4167" y2="172.1378" gradientTransform="matrix(1 0 0 -1 0 411.6378)">
	<stop  offset="0" style="stop-color:#004278"/>
	<stop  offset="0.3186" style="stop-color:#004278"/>
	<stop  offset="0.35" style="stop-color:#004278"/>
	<stop  offset="0.3687" style="stop-color:#00497C"/>
	<stop  offset="0.4441" style="stop-color:#006189"/>
	<stop  offset="0.5229" style="stop-color:#007995"/>
	<stop  offset="0.6044" style="stop-color:#008E9E"/>
	<stop  offset="0.6894" style="stop-color:#009EA3"/>
	<stop  offset="0.7794" style="stop-color:#00ABA8"/>
	<stop  offset="0.8776" style="stop-color:#00B4AB"/>
	<stop  offset="1" style="stop-color:#00B9AD"/>
</linearGradient>
<polygon class="st1" points="96,168.9 101.9,160 108,151.2 121.3,133.9 147.2,102.6 169.6,133.4 198.4,169.5 228.9,204.9 
	243.1,220.3 255.9,233.4 297.3,271.1 341.9,307.4 389,342.4 438.3,376.4 374.2,358.2 343.9,348.1 314.5,337.3 286.5,325.9 
	260,313.6 235.2,300.6 212.1,286.9 196.1,275.8 179.2,262.4 162,247.4 145.2,231.3 129.5,214.8 115.6,198.5 104.2,183 99.6,175.6 
	"/>
<linearGradient id="SVGID_3_" gradientUnits="userSpaceOnUse" x1="-137.0244" y1="246.9378" x2="708.1481" y2="246.9378" gradientTransform="matrix(1 0 0 -1 0 411.6378)">
	<stop  offset="0" style="stop-color:#004278"/>
	<stop  offset="0.3186" style="stop-color:#004278"/>
	<stop  offset="0.35" style="stop-color:#004278"/>
	<stop  offset="0.3687" style="stop-color:#00497C"/>
	<stop  offset="0.4441" style="stop-color:#006189"/>
	<stop  offset="0.5229" style="stop-color:#007995"/>
	<stop  offset="0.6044" style="stop-color:#008E9E"/>
	<stop  offset="0.6894" style="stop-color:#009EA3"/>
	<stop  offset="0.7794" style="stop-color:#00ABA8"/>
	<stop  offset="0.8776" style="stop-color:#00B4AB"/>
	<stop  offset="1" style="stop-color:#00B9AD"/>
</linearGradient>
<polygon class="st2" points="163.7,83.8 163.7,84.1 190.7,124.8 206.9,148 219.4,164.9 238.6,187.5 259.2,209.5 280.9,230.6 
	303.5,251.4 351.5,291.2 402.2,329.4 378.2,305.5 353.6,277 329.4,243.6 306.7,205.4 296.2,184.4 286.4,162.1 277.4,138.4 
	269.5,113.5 262.6,87.2 257,59.5 252.7,30.5 249.9,0 233.9,14.1 211.3,34.6 186.5,58.9 174.5,71.5 "/>
<linearGradient id="SVGID_4_" gradientUnits="userSpaceOnUse" x1="1595.0715" y1="172.1378" x2="-1027.5676" y2="172.1378" gradientTransform="matrix(1 0 0 -1 0 411.6378)">
	<stop  offset="0" style="stop-color:#004278"/>
	<stop  offset="0.3881" style="stop-color:#004278"/>
	<stop  offset="0.45" style="stop-color:#004278"/>
	<stop  offset="0.4658" style="stop-color:#00497C"/>
	<stop  offset="0.5296" style="stop-color:#006189"/>
	<stop  offset="0.5963" style="stop-color:#007995"/>
	<stop  offset="0.6653" style="stop-color:#008E9E"/>
	<stop  offset="0.7372" style="stop-color:#009EA3"/>
	<stop  offset="0.8133" style="stop-color:#00ABA8"/>
	<stop  offset="0.8965" style="stop-color:#00B4AB"/>
	<stop  offset="1" style="stop-color:#00B9AD"/>
</linearGradient>
<polygon class="st3" points="147.2,102.6 173.3,138 204.1,174.4 238.6,211 276.1,247.3 315.7,282.6 356.5,316.4 397.6,347.8 
	438.2,376.4 392.4,356.3 347.5,331.3 304.4,301.6 264,268.2 227.1,231 210.3,211.2 194.9,190.6 180.6,169.5 167.9,147.8 
	156.7,125.5 "/>
<linearGradient id="SVGID_5_" gradientUnits="userSpaceOnUse" x1="-1431.6068" y1="115.6378" x2="1975.9791" y2="115.6378" gradientTransform="matrix(1 0 0 -1 0 411.6378)">
	<stop  offset="0" style="stop-color:#00B9AD"/>
	<stop  offset="0.1397" style="stop-color:#00B5AB"/>
	<stop  offset="0.2237" style="stop-color:#00ADA8"/>
	<stop  offset="0.293" style="stop-color:#00A2A5"/>
	<stop  offset="0.3543" style="stop-color:#0093A0"/>
	<stop  offset="0.4103" style="stop-color:#008199"/>
	<stop  offset="0.4624" style="stop-color:#006D8F"/>
	<stop  offset="0.5106" style="stop-color:#005683"/>
	<stop  offset="0.55" style="stop-color:#004278"/>
	<stop  offset="1" style="stop-color:#004278"/>
</linearGradient>
<polygon class="st4" points="80,192.6 85.7,201.6 92.6,210.9 100.5,220.2 109.4,229.6 129.6,248.6 152.6,267.5 177.5,285.5 
	203.6,302.4 230.1,317.6 256.4,331 301.2,350.6 350.4,368.8 403.9,385.2 461.7,399.4 422.6,398.6 385.5,395.6 350.5,390.6 
	317.7,383.6 287,375 258.6,364.6 232.5,353.1 208.7,340.2 188.9,327.3 168.9,311.9 149.1,294.6 130.4,275.6 113.4,255.5 
	105.9,245.1 98.9,234.6 92.9,224.1 87.5,213.5 83.2,203 "/>
<path class="st5" d="M673.6,136.7h59.7c-14.9-45.2-23-70.2-24.5-74.8c-8.4,18.8-15.6,34.3-21.5,46.3L673.6,136.7z M524.8,267.5
	l16-27.7l99.4-187.5l10.6-20.9c3.1-6.2,7.4-15,12.9-26.6C686.2,5,702.6,5.1,713,5.1c18.1,0,34.8-0.1,50.2-0.4l28,80.3l57.2,154.3
	l11.2,28.1c-22.2-0.3-35.7-0.4-40.4-0.4c-10.8,0-26.7,0.1-47.5,0.4c-5.6-21.2-13.8-46.2-24.5-74.8h-96.8
	c-11.1,22.6-22.6,47.6-34.5,74.8c-23.9-0.3-38.5-0.4-43.9-0.4C562.2,267.1,546.5,267.2,524.8,267.5z"/>
<path class="st5" d="M880.9,267.5c7.4-103.1,11.1-182.4,11.1-238l-0.2-24.8c22.5,0.3,37.4,0.4,45,0.4c3.5,0,17.3-0.1,41.4-0.4
	c-2.4,28.9-4.2,56.2-5.6,82c-1.8,35.9-3.1,69.5-3.9,100.8c-0.8,31.3-1.2,57.9-1.2,80l-39.3-0.4C920.4,267.1,904.6,267.2,880.9,267.5
	"/>
<path class="st5" d="M1169.1,114.6c17.5,0.3,34.3,0.4,50.2,0.4c27.1,0,48.4-0.1,63.7-0.4c-1.6,17.5-3.3,42.4-5,74.5
	c-1.6,32.2-2.7,56.4-3.1,72.8c-14.8,2.7-27,4.7-36.6,5.9c-9.7,1.2-21.3,2.3-34.9,3.3s-25.7,1.4-36.4,1.4c-17.5,0-34.5-1.4-51.3-4.2
	c-16.8-2.8-31.8-7.4-45.2-13.7c-13.3-6.3-24.3-14.8-33.2-25.6c-8.9-10.8-15.7-23.6-20.5-38.3c-4.8-14.8-7.2-30-7.2-45.8
	c0-26,6.5-50.2,19.4-72.5c12.9-22.3,31.6-40,55.9-53s55.7-19.5,94.1-19.5c28.1,0,59.1,3.4,93.3,10.2c0,18.6,0.8,39.4,2.4,62.2
	c-9.3-3.1-16.7-5.4-22.4-7c-5.7-1.6-12.4-3.1-20-4.4c-7.6-1.4-14.9-2.4-21.7-3c-6.9-0.7-13-1-18.4-1c-14.1,0-27.4,2-40,6
	c-12.5,4.1-23.4,10.2-32.4,18.6c-9.1,8.3-15.8,18.4-20.3,30c-4.5,11.7-6.8,24-6.8,36.9c0,13.1,2.6,24.9,7.7,35.2
	c5.2,10.3,13.3,18.1,24.5,23.5s23.6,8.1,37.4,8.1c11.4,0,24-1.7,37.6-5.1l2-41c-8.3-0.3-13.2-0.4-14.7-0.4l-20.4,0.2l1.3-23.7
	c0.1-2.6,0.3-6.3,0.6-11.1C1168.9,129.6,1169.1,123,1169.1,114.6"/>
<path class="st5" d="M1321.7,267.5c3.2-33.1,5.5-60.8,7-83.2c1.4-22.3,3-52,4.4-89c1.5-37,2.2-61.5,2.2-73.6l-0.2-16.9
	c30.3,0.3,66.9,0.4,109.8,0.4c39.6,0,74.5-0.1,104.8-0.4l-0.4,6.4c-0.1,1.5-0.5,7.1-0.9,16.7l-1.2,20.9c-0.3,4.5-0.4,9-0.4,13.7
	c-24.7-1.1-45.4-1.6-62.2-1.6c-18.4,0-30.9,0.1-37.4,0.1c-6.5,0.1-16.5,0.3-30.3,0.9l-2.2,44.1c15.2,0.4,32.8,0.6,52.8,0.6
	c7.2,0,26.3-0.5,57.3-1.4c-1.3,16.4-2.5,36-3.7,58.7c-22.2-0.3-39.3-0.4-51.2-0.4c-17.7,0-37.5,0.4-59.5,1.2l-2.4,46.9h22.1
	c6.6,0,20.1-0.2,40.6-0.6l39.8-1c5.9-0.1,15.8-0.7,29.6-1.6c-1.5,19-2.8,38.7-3.9,59.1c-31.2-0.3-65.5-0.4-102.8-0.4l-84.6,0.2
	L1321.7,267.5z"/>
<path class="st5" d="M1581.7,267.5l3.8-40.4l7.5-137l2.1-55.3v-30c19.9,0.3,37.5,0.4,52.7,0.4c10.9,0,26.3-0.1,46-0.4l82.7,149.5
	l11.4,21.9c1.3-21.5,2.6-51.8,4-90.7s2-65.8,2-80.7c15.8,0.3,28.5,0.4,38,0.4c4.3,0,16.9-0.1,37.7-0.4l-4.5,57.4l-8.5,159.3l-1.1,46
	c-16.7-0.3-32.3-0.4-46.9-0.4c-12.1,0-28.8,0.1-50.1,0.4c-6.7-12.6-11.6-21.7-14.8-27.4l-32.3-54.9c-10.7-18-20.5-35.2-29.5-51.6
	c-5.9-10.4-11.9-21.9-18.3-34.3l-3.9,91.3l-1.8,76.9c-16-0.3-28.1-0.4-36.4-0.4C1614.4,267.1,1601.2,267.2,1581.7,267.5"/>
<path class="st5" d="M1905.9,267.5c7.4-103.1,11.2-182.3,11.2-237.9l-0.2-24.8c22.5,0.3,37.4,0.4,45,0.4c3.5,0,17.3-0.1,41.4-0.4
	c-2.4,28.9-4.2,56.2-5.6,82c-1.8,35.9-3.1,69.5-3.9,100.8s-1.2,57.9-1.2,80l-39.3-0.4C1945.4,267.1,1929.6,267.2,1905.9,267.5"/>
<path class="st5" d="M2037.2,263.5c-1.6-27.2-3.6-49-5.8-65.4c14.4,6.4,27.4,10.8,38.7,13.2c11.3,2.5,21.2,3.7,29.7,3.7
	c11.3,0,20.2-1.6,26.8-4.9c6.6-3.3,10-8.1,10-14.5c0-2.2-0.3-4.3-1-6.2c-0.7-2-1.8-4.3-3.7-6.8c-1.8-2.5-4.4-5.2-7.7-8.1l-36.5-31.6
	c-8.5-7.2-14.5-12.3-17.9-15.6c-6.8-6.6-12.2-12.7-16-18.3s-6.6-11.4-8.3-17.2c-1.8-5.8-2.6-12-2.6-18.6c0-7.8,1.4-15.5,4.1-23
	c2.8-7.5,6.9-14.5,12.5-21.1c5.5-6.5,12.8-12.1,22-16.9c9.1-4.8,18.8-8,29.3-9.7c10.4-1.8,21.1-2.6,32.2-2.6c21.7,0,45.4,2.5,71,7.5
	c0.3,8.9,0.8,16.9,1.3,24.3s1.8,20.3,3.7,38.7c-11.9-4.7-22.7-8-32.6-9.8c-9.8-1.8-18.3-2.8-25.3-2.8c-10,0-18.4,1.8-25.1,5.6
	c-6.6,3.7-10,8.3-10,13.9c0,2.6,0.5,5.1,1.6,7.5c1,2.4,3,5.3,5.8,8.6c2.8,3.2,6.6,6.8,11.2,10.8c4.7,3.9,11.9,9.7,21.9,17.4l13.9,11
	c4.1,3.3,8.6,7.4,13.4,12.1c4.7,4.8,8.9,9.5,12.3,14c3.5,4.7,6.2,8.9,8.1,12.7c1.8,3.8,3.3,7.7,4.1,11.6c0.9,3.9,1.4,8.1,1.4,12.6
	c0,11.6-2.8,22.5-8.3,33s-13.4,19.1-23.5,25.8c-10.2,6.8-21.3,11.4-33.5,14.1c-12.1,2.7-24.9,4.1-38.4,4.1
	C2095.3,272.6,2068.9,269.6,2037.2,263.5"/>
<g>
	<g>
		<path class="st5" d="M569.1,332.6c-0.7,0.3-1.3,0.6-1.8,1c-0.6,0.4-1.1,0.9-1.5,1.4c-0.5,0.5-0.9,1.1-1.2,1.6l-19.7,33.7
			c-0.8,1.2-1.6,2.6-2.4,4.3c-0.8,1.6-1.5,3.4-2.2,5.2c0.3-2.1,0.5-4.2,0.6-6c0.1-1.9,0.1-3.7,0.1-5.4v-36.3h-15.2V397h11.4
			c0.7,0,1.4-0.1,2.1-0.4c0.7-0.3,1.3-0.6,1.8-1c0.6-0.4,1.1-0.9,1.5-1.4c0.5-0.5,0.9-1.1,1.2-1.6l19.7-33.7
			c0.8-1.2,1.6-2.6,2.4-4.3c0.8-1.6,1.5-3.4,2.2-5.3c-0.3,2.1-0.5,4.2-0.6,6c-0.1,1.9-0.2,3.7-0.2,5.4v36.4h15.2v-64.9h-11.4
			C570.4,332.2,569.7,332.4,569.1,332.6z M645.5,359.4h-26.4v-27.1H604v64.9h15.2v-27.5h26.4v27.5h15.2v-64.9h-15.2v27.1H645.5z
			 M719.8,363.5c2-0.7,3.6-1.6,5-2.5c1.4-1,2.5-2.1,3.4-3.2c0.9-1.2,1.5-2.4,2-3.8c0.4-1.4,0.6-2.8,0.6-4.2c0-2.7-0.5-5.1-1.4-7.3
			c-0.9-2.2-2.4-4-4.3-5.5c-2-1.5-4.6-2.7-7.7-3.5c-3.1-0.8-7-1.2-11.5-1.2H682v64.9h25.9c3.9,0,7.4-0.5,10.4-1.5s5.6-2.4,7.6-4.1
			c2.1-1.8,3.6-3.8,4.7-6.2c1.1-2.4,1.6-4.9,1.6-7.7c0-3.7-1-6.7-3.1-9C727.3,366.3,724.1,364.6,719.8,363.5z M697.2,343.5h8.8
			c1.7,0,3.2,0.1,4.4,0.4s2.3,0.7,3.1,1.3c0.8,0.6,1.4,1.4,1.8,2.5c0.4,1,0.6,2.3,0.6,3.9s-0.2,2.9-0.7,3.9s-1.2,1.9-2.1,2.5
			c-0.9,0.6-2.1,1-3.4,1.2c-1.3,0.2-2.8,0.4-4.5,0.4h-7.8v-16.1H697.2z M717.1,380.4c-0.3,1-0.8,1.9-1.5,2.7c-0.7,0.8-1.7,1.5-3,2
			s-2.9,0.8-4.9,0.8h-10.6v-16.2h10.5c1.9,0,3.5,0.2,4.7,0.5c1.2,0.4,2.3,0.9,3,1.5c0.8,0.7,1.3,1.5,1.6,2.4c0.3,1,0.5,2,0.5,3.2
			C717.5,378.3,717.4,379.3,717.1,380.4z M750.7,397.2h41.8v-11.6h-26.7v-15.5h20.4V359h-20.4v-15.2h26.7v-11.6h-41.8V397.2z
			 M854.2,380.6c-0.4-0.1-0.7-0.2-1.1-0.2c-0.4,0-0.9,0.1-1.3,0.3c-0.4,0.2-0.8,0.4-1.2,0.7c-0.9,0.8-1.8,1.5-2.6,2
			c-0.9,0.5-1.8,0.9-2.8,1.2c-1,0.3-2,0.5-3.2,0.7c-1.1,0.1-2.4,0.2-3.7,0.2c-2.4,0-4.6-0.5-6.7-1.4c-2.1-0.9-3.9-2.3-5.5-4
			c-1.6-1.8-2.8-3.9-3.7-6.5s-1.4-5.5-1.4-8.9c0-3.3,0.4-6.2,1.2-8.8c0.8-2.6,2-4.7,3.5-6.5s3.3-3.1,5.3-4c2.1-0.9,4.3-1.4,6.8-1.4
			c1.6,0,2.9,0.1,4.1,0.4c1.2,0.2,2.2,0.5,3.1,0.9c0.9,0.3,1.6,0.7,2.3,1.1c0.6,0.4,1.2,0.8,1.8,1.1c0.5,0.3,1,0.6,1.5,0.9
			c0.5,0.2,1,0.4,1.5,0.4c0.8,0,1.4-0.2,1.9-0.5c0.4-0.3,0.8-0.7,1.2-1.1l5.1-6.8c-1.2-1.2-2.6-2.4-4.2-3.5c-1.6-1.1-3.3-2-5.2-2.7
			s-3.9-1.4-6-1.8c-2.2-0.4-4.4-0.6-6.9-0.6c-4.8,0-9.2,0.8-13.1,2.5c-4,1.6-7.4,3.9-10.3,6.9c-2.9,2.9-5.1,6.4-6.6,10.5
			c-1.6,4.1-2.4,8.5-2.4,13.3s0.7,9.2,2.2,13.2s3.5,7.6,6.3,10.5c2.7,3,6,5.3,9.9,7s8.3,2.5,13.3,2.5c5.4,0,10-0.9,14-2.6
			c3.9-1.7,7.2-4.3,9.8-7.7l-6-6.3C854.9,380.9,854.6,380.7,854.2,380.6z M871.8,344.2H890v53h15.1v-53h18.3v-11.9h-51.6V344.2z
			 M983.2,332.6c-0.7,0.3-1.3,0.6-1.8,1c-0.6,0.4-1.1,0.9-1.5,1.4c-0.5,0.5-0.9,1.1-1.2,1.6L959,370.3c-0.8,1.2-1.6,2.6-2.4,4.3
			c-0.8,1.6-1.5,3.4-2.2,5.2c0.3-2.1,0.5-4.2,0.6-6c0.1-1.9,0.1-3.7,0.1-5.4v-36.3h-15.2V397h11.4c0.7,0,1.4-0.1,2.1-0.4
			c0.7-0.3,1.3-0.6,1.8-1c0.6-0.4,1.1-0.9,1.5-1.4c0.5-0.5,0.9-1.1,1.2-1.6l19.7-33.7c0.8-1.2,1.6-2.6,2.4-4.3
			c0.8-1.6,1.5-3.4,2.2-5.3c-0.3,2.1-0.5,4.2-0.6,6c-0.1,1.9-0.2,3.7-0.2,5.4v36.4h15.2v-64.9h-11.4
			C984.5,332.2,983.8,332.4,983.2,332.6z M1072.8,332.2h-15.2V386h-24.4v-53.7H1018v64.9h49.6v15.2h9.1c1.4,0,2.5-0.4,3.4-1.1
			s1.3-1.7,1.3-3V386h-8.7L1072.8,332.2L1072.8,332.2z M1142.3,332.6c-0.7,0.3-1.3,0.6-1.8,1c-0.6,0.4-1.1,0.9-1.5,1.4
			c-0.5,0.5-0.9,1.1-1.2,1.6l-19.7,33.7c-0.8,1.2-1.6,2.6-2.4,4.3c-0.8,1.6-1.5,3.4-2.2,5.2c0.3-2.1,0.5-4.2,0.6-6
			c0.1-1.9,0.1-3.7,0.1-5.4v-36.3H1099V397h11.4c0.7,0,1.4-0.1,2.1-0.4s1.3-0.6,1.8-1c0.6-0.4,1.1-0.9,1.5-1.4
			c0.5-0.5,0.9-1.1,1.2-1.6l19.7-33.7c0.8-1.2,1.6-2.6,2.4-4.3c0.8-1.6,1.5-3.4,2.2-5.3c-0.3,2.1-0.5,4.2-0.6,6
			c-0.1,1.9-0.2,3.7-0.2,5.4v36.4h15.2v-64.9h-11.4C1143.6,332.2,1142.9,332.4,1142.3,332.6z M1231.6,341.1c-2.9-3-6.5-5.3-10.6-7
			s-8.7-2.6-13.8-2.6c-5.1,0-9.7,0.8-13.8,2.5c-4.2,1.7-7.7,4-10.7,7s-5.2,6.5-6.9,10.5c-1.6,4-2.4,8.4-2.4,13.1s0.8,9.1,2.4,13.1
			s3.9,7.6,6.9,10.5c3,3,6.5,5.3,10.7,7s8.8,2.5,13.8,2.5c5.1,0,9.6-0.8,13.8-2.5s7.7-4,10.6-7s5.2-6.5,6.8-10.5
			c1.6-4,2.4-8.4,2.4-13.1s-0.8-9-2.4-13.1C1236.8,347.6,1234.5,344.1,1231.6,341.1z M1224.2,373.4c-0.8,2.6-2,4.7-3.6,6.5
			s-3.5,3.1-5.7,4.1c-2.3,0.9-4.8,1.4-7.7,1.4c-2.9,0-5.5-0.5-7.8-1.4s-4.2-2.3-5.7-4.1c-1.6-1.8-2.8-4-3.6-6.5
			c-0.8-2.6-1.2-5.5-1.2-8.7s0.4-6.1,1.2-8.7c0.8-2.6,2-4.7,3.6-6.5s3.5-3.1,5.7-4.1c2.3-1,4.9-1.4,7.8-1.4s5.5,0.5,7.7,1.4
			c2.3,1,4.2,2.3,5.7,4.1c1.6,1.8,2.8,4,3.6,6.5c0.8,2.6,1.2,5.5,1.2,8.7C1225.5,367.9,1225,370.8,1224.2,373.4z M1300.2,359.4
			h-26.4v-27.1h-15.2v64.9h15.2v-27.5h26.4v27.5h15.2v-64.9h-15.2V359.4z M1378.4,359.4H1352v-27.1h-15.2v64.9h15.2v-27.5h26.4v27.5
			h15.2v-64.9h-15.2V359.4z M1432.5,332.2l-25.1,64.9h11.8c1.2,0,2.3-0.3,3.1-1c0.8-0.7,1.4-1.4,1.8-2.3l3.8-11.3h24.7l3.8,11.3
			c0.4,1,1,1.7,1.8,2.3c0.8,0.6,1.9,0.9,3.2,0.9h11.7l-25.1-64.9h-15.5V332.2z M1431.4,372.3l6-17.7c0.4-1.1,0.9-2.5,1.4-4
			s1-3.2,1.4-5c0.5,1.8,1,3.4,1.5,5c0.5,1.5,1,2.9,1.4,4l6,17.8L1431.4,372.3L1431.4,372.3z M1501.4,333.7c-3.1,1-5.6,2.3-7.8,4.1
			c-2.1,1.7-3.7,3.8-4.8,6.2c-1.1,2.4-1.7,5-1.7,7.8c0,1.9,0.3,3.7,0.8,5.4c0.5,1.7,1.3,3.3,2.4,4.7c1.1,1.4,2.5,2.7,4.1,3.8
			c1.7,1.1,3.6,2,5.9,2.7c-1.6,0.7-3,1.6-4.2,2.6c-1.2,1.1-2.3,2.4-3.2,4l-13.3,22.1h11.4c2.2,0,4-0.5,5.6-1.4
			c1.5-0.9,2.8-2.1,3.7-3.7l9.1-16.5c1-1.8,2-2.9,3.2-3.5c1.1-0.6,2.4-0.9,3.8-0.9h4.7v26h15.1v-64.9H1512
			C1507.9,332.2,1504.4,332.7,1501.4,333.7z M1521,359.8h-9.2c-2,0-3.7-0.2-4.9-0.6c-1.3-0.4-2.3-1-3-1.7s-1.2-1.6-1.5-2.6
			s-0.4-2.1-0.4-3.3c0-1,0.1-2,0.4-3s0.8-1.8,1.5-2.6c0.7-0.8,1.7-1.4,3-1.8s2.9-0.7,4.9-0.7h9.2V359.8z M1626.7,365.3
			c-1.4-1.2-3.1-2.1-5.1-2.7c1.2-0.5,2.4-1.1,3.4-1.9s1.9-1.8,2.7-2.9l15.8-25.5h-12.9c-1.4,0-2.6,0.4-3.6,1.1s-1.8,1.6-2.5,2.8
			l-11.8,19.6c-0.7,1.1-1.4,1.9-2.3,2.3c-0.8,0.4-1.8,0.6-2.9,0.6h-5.5v-26.3h-15v64.9h15.1v-27.6h6.8c1.4,0,2.5,0.2,3.4,0.6
			s1.7,1.3,2.4,2.6l10.8,20.3c0.8,1.3,1.6,2.4,2.5,3.1s2.1,1.1,3.4,1.1h13.8l-14.5-26.8C1629.4,368.2,1628.1,366.5,1626.7,365.3z
			 M1712.2,341.1c-2.9-3-6.5-5.3-10.6-7s-8.7-2.6-13.8-2.6c-5.1,0-9.7,0.8-13.8,2.5c-4.2,1.7-7.7,4-10.7,7s-5.2,6.5-6.9,10.5
			c-1.6,4-2.4,8.4-2.4,13.1s0.8,9.1,2.4,13.1s3.9,7.6,6.9,10.5c3,3,6.5,5.3,10.7,7s8.8,2.5,13.8,2.5c5.1,0,9.6-0.8,13.8-2.5
			s7.7-4,10.6-7s5.2-6.5,6.8-10.5c1.6-4,2.4-8.4,2.4-13.1s-0.8-9-2.4-13.1C1717.4,347.6,1715.2,344.1,1712.2,341.1z M1704.8,373.4
			c-0.8,2.6-2,4.7-3.6,6.5s-3.5,3.1-5.7,4.1c-2.3,0.9-4.8,1.4-7.7,1.4c-2.9,0-5.5-0.5-7.8-1.4s-4.2-2.3-5.7-4.1
			c-1.6-1.8-2.8-4-3.6-6.5c-0.8-2.6-1.2-5.5-1.2-8.7s0.4-6.1,1.2-8.7c0.8-2.6,2-4.7,3.6-6.5s3.5-3.1,5.7-4.1c2.3-1,4.9-1.4,7.8-1.4
			s5.5,0.5,7.7,1.4c2.3,1,4.2,2.3,5.7,4.1c1.6,1.8,2.8,4,3.6,6.5c0.8,2.6,1.2,5.5,1.2,8.7C1706.1,367.9,1705.6,370.8,1704.8,373.4z
			 M1799.1,332.3c-0.5,0-0.9,0.1-1.3,0.3c-0.4,0.1-0.7,0.4-1,0.7c-0.3,0.3-0.6,0.8-0.9,1.3l-16.7,32.8c-0.6,1.1-1.2,2.3-1.8,3.6
			c-0.5,1.2-1.1,2.5-1.6,3.8c-0.5-1.3-1-2.5-1.6-3.7s-1.1-2.4-1.7-3.5l-16.7-32.9c-0.3-0.6-0.6-1-0.9-1.3s-0.7-0.5-1-0.7
			c-0.4-0.1-0.8-0.2-1.3-0.3c-0.5,0-1.1,0-1.7,0h-11.5v64.9h13.3V360c0-0.9,0-1.8-0.1-2.8s-0.1-2.1-0.2-3.1l17.2,33.5
			c0.5,1,1.3,1.8,2.2,2.4c0.9,0.5,1.9,0.8,3.1,0.8h2.1c1.2,0,2.2-0.3,3.1-0.8s1.6-1.3,2.2-2.4l17.2-33.4c-0.1,1-0.2,2.1-0.2,3.1
			s-0.1,1.9-0.1,2.8v37.3h13.3v-64.9H1801C1800.1,332.2,1799.5,332.2,1799.1,332.3z M1833.7,397.2h15.2v-53.7h24.4v53.7h15.2v-64.9
			h-54.7L1833.7,397.2L1833.7,397.2z M1927.4,332.2l-25.1,64.9h11.8c1.2,0,2.3-0.3,3.1-1c0.8-0.7,1.4-1.4,1.8-2.3l3.8-11.3h24.7
			l3.8,11.3c0.4,1,1,1.7,1.8,2.3c0.8,0.6,1.9,0.9,3.2,0.9h11.7l-25.1-64.9h-15.5V332.2z M1926.3,372.3l6-17.7c0.4-1.1,0.9-2.5,1.4-4
			s1-3.2,1.4-5c0.5,1.8,1,3.4,1.5,5c0.5,1.5,1,2.9,1.4,4l6,17.8L1926.3,372.3L1926.3,372.3z M2023.4,359.4H1997v-27.1h-15.2v64.9
			h15.2v-27.5h26.4v27.5h15.2v-64.9h-15.2V359.4z M2103.3,332.6c-0.7,0.3-1.3,0.6-1.8,1c-0.6,0.4-1.1,0.9-1.5,1.4
			c-0.5,0.5-0.9,1.1-1.2,1.6l-19.7,33.7c-0.8,1.2-1.6,2.6-2.4,4.3c-0.8,1.6-1.5,3.4-2.2,5.2c0.3-2.1,0.5-4.2,0.6-6
			c0.1-1.9,0.1-3.7,0.1-5.4v-36.3H2060V397h11.4c0.7,0,1.4-0.1,2.1-0.4c0.7-0.3,1.3-0.6,1.8-1c0.6-0.4,1.1-0.9,1.5-1.4
			c0.5-0.5,0.9-1.1,1.2-1.6l19.7-33.7c0.8-1.2,1.6-2.6,2.4-4.3c0.8-1.6,1.5-3.4,2.2-5.3c-0.3,2.1-0.5,4.2-0.6,6
			c-0.1,1.9-0.2,3.7-0.2,5.4v36.4h15.2v-64.9h-11.4C2104.6,332.2,2103.9,332.4,2103.3,332.6z M2163.1,332.2c-3.9,0-7.4,0.5-10.4,1.5
			c-3.1,1-5.6,2.3-7.8,4.1c-2.1,1.7-3.7,3.8-4.8,6.2c-1.1,2.4-1.7,5-1.7,7.8c0,1.9,0.3,3.7,0.8,5.4c0.5,1.7,1.3,3.3,2.4,4.7
			c1.1,1.4,2.5,2.7,4.1,3.8c1.7,1.1,3.6,2,5.9,2.7c-1.6,0.7-3,1.6-4.2,2.6c-1.2,1.1-2.3,2.4-3.2,4l-13.3,22.1h11.4
			c2.2,0,4-0.5,5.6-1.4c1.5-0.9,2.8-2.1,3.7-3.7l9.1-16.5c1-1.8,2-2.9,3.2-3.5c1.1-0.6,2.4-0.9,3.8-0.9h4.7v26h15.1v-64.9
			L2163.1,332.2L2163.1,332.2z M2172.2,359.8h-9.2c-2,0-3.7-0.2-4.9-0.6c-1.3-0.4-2.3-1-3-1.7s-1.2-1.6-1.5-2.6s-0.4-2.1-0.4-3.3
			c0-1,0.1-2,0.4-3c0.3-1,0.8-1.8,1.5-2.6c0.7-0.8,1.7-1.4,3-1.8s2.9-0.7,4.9-0.7h9.2V359.8z"/>
	</g>
</g>
</svg>
