<?xml version="1.0" encoding="utf-8"?>
<!-- Generator: Adobe Illustrator 23.0.2, SVG Export Plug-In . SVG Version: 6.00 Build 0)  -->
<svg version="1.1" fill="#ffffff" id="Layer_1" xmlns="http://www.w3.org/2000/svg" xmlns:xlink="http://www.w3.org/1999/xlink" x="0px" y="0px"
	 viewBox="0 0 1253.4 320.6" style="enable-background:new 0 0 1253.4 320.6;" xml:space="preserve">
<style type="text/css">
	.st0{fill-rule:evenodd;clip-rule:evenodd;}
</style>
<g>
	<g>
		<path class="st0" d="M309.7,231.3c-4.4,0.3-9.5,0.5-14.7,1.4c0-16.8-0.3-51.3-0.3-64.2c0-13.8,0.3-26.7,1.7-41.6
			c0-6.1-9.5-10.5-14.5-10.5c-4.7,0-8.9,0.3-8.9,5.5c0,1.9,0.6,6.3,0.6,9.1c0,22.6-14.5,60.6-42.8,60.6c-17.8,0-31.4-24.8-31.4-64.5
			c0-48.2,29.2-101.7,63.9-101.7c12.8,0,17,9.1,17,15.4c0,17.6-20.3,33.9-34.5,33.9c-8.1,0-8.6-2.8-10.6-2.8s-3.1,6.1-3.1,9.9
			c0,9.1,5.6,13.2,12.2,13.2c24.2,0,57.8-25.6,57.8-55.7c0-21.2-15.3-34.2-35.3-34.2c-55.3,0-90.6,67.3-90.6,122.1
			c0,51.5,19.5,85.7,53.9,85.7c17,0,31.4-9.9,43.1-27c0,6.6,0.6,36.6,0.6,48.5v2.8c-25.9,7.7-51.2,22.6-51.2,50.7
			c0,18.5,12.2,32.5,31.1,32.5c32.5,0,39.2-36.1,40.6-67c3.9-0.3,7.5-0.5,11.7-0.5C315.8,252.8,322.8,230.5,309.7,231.3z
			 M254.4,299.4c-5.6,0-10-3.6-10-11.9c0-13.8,10.3-24,28.6-29.8C271.6,279.8,266.9,299.4,254.4,299.4z M120.5,192.9L139,0
			L37.1,192.9H120.5z M1237.1,161.9c-2.5,12.1-7.5,29.8-18.6,29.8c-7.2,0-7.2-10.2-7.2-12.7v-57c0-12.7-4.4-27.8-23.1-27.8
			c-13.6,0-23.6,11.8-31.1,27.3V31c0-6.6-5.8-12.1-15-12.1c-3.9,0-8.9,1.1-8.9,3c0,1.9,2.8,2.5,2.8,10.5v126.3
			c-0.5,0.9-0.9,2-1.4,3.2c-3.1,8.8-9.7,17.1-22.8,19.8c0.8-3,1.4-6.6,1.4-9.9c0-26.2-17-36.1-30-59c0.3-1.6,6.7-10.8,6.7-18.7
			c0-7.4-3.3-12.4-10-12.4c-7.5,0-23.6,12.4-23.6,21.8c0,4.7,1.7,8.8,4.4,12.9c-5,14.6-10.8,30.3-13.6,42.4
			c-0.3,0.9-0.6,1.9-0.9,3.1c-0.6,2.8-1.3,5.8-2.2,8.9c-0.3-0.1-0.6-0.1-0.9-0.1c-4.4,0-9.5,7.6-7,16.6c-2.4,2.7-5.2,4.3-8.6,4.3
			c-7.2,0-7.2-10.2-7.2-12.7v-70c0-6.6-5.8-12.1-15-12.1c-3.9,0-8.9,1.1-8.9,3c0,1.9,2.8,2.5,2.8,10.5v44.4
			c-3.3,19.3-11.7,37.2-22.8,37.2c-8.1,0-12.8-8-12.8-22.9c0-23.1,3.1-35.3,8.1-55.7c1.1-4.1,9.2-15.2-4.4-15.2
			c-14.7,0-12.8,5.5-14.7,10.2c0,0-10,32.8-10,62c0,0.5,0,1,0,1.5c-3,10-8,19.7-17.5,19.7c-7.5,0-11.1-7.2-11.1-14.9
			c0-27.6,12.5-60.1,12.5-63.4c1.1-6.3-10-15.4-13.3-15.4h-14.5c-2.8,0-5.6,0-14.7-1.1c-3.1-11.3-10.8-14.6-17.5-14.6
			c-7.2,0-13.9,5-13.9,12.7c0,8,5,13.8,12,17.6c-0.3,14.1-1.4,36.9-4.4,48c-2.5,9.4,12,19.3,15.6,7.7c5-16,6.7-40,7-50.7h24.2
			c-8.9,23.7-13.9,43.3-13.9,60.9c0,24.3,15.6,31.4,28.6,31.4c11.7,0,20.3-6,26.6-14.2c5,9.2,13.2,14.5,24,14.5
			c12.2,0,21.1-8.3,27.8-19.8c1.9,11,10.3,19.6,22.8,19.6c9.5,0,16.9-3.9,22.8-9.8c6.4,4.8,18.1,9.8,28.4,9.8
			c11.4,0,20.6-4.1,27.2-9.9c15.8-1,26.7-5.5,35-11.6v9.4c0,10.2,7.8,12.1,13.3,12.1c8.1,0,7.8-6.6,7.8-11.9v-40.2
			c1.9-21.8,19.2-45.5,27.2-45.5c5.3,0,5.8,7.2,5.8,15.7v56c0,14,8.6,25.9,23.4,25.9c23.9,0,34.8-24.8,39.8-43
			C1255.4,158,1240.4,145.1,1237.1,161.9z M1087.7,186.7c-7.9,0-19.4-5.1-28.9-9.6c1.3-3.5,2.4-7,3.3-10.3c0-0.2,0.1-0.3,0.1-0.4
			c0.3-0.6,0.5-1.3,0.7-2c3.6-13.2,6.4-22.6,10.8-33.4c9.7,9.9,20,21.5,20,38.9C1093.9,176.8,1090.8,183.1,1087.7,186.7z
			 M696.2,156.9c-3.3,16.8-12.2,34.7-33.9,34.7c-14.5,0-22-7.7-25.9-17.1c27-8,41.1-32.2,41.1-52.6c0-16.5-9.5-27.8-25-27.8
			c-21.4,0-42.5,26.2-42.5,61.2c0,4.7,0.5,9.1,1.3,13.2c-3.9,11.1-12.3,23.2-23,23.2c-10.3,0-14.7-8-14.7-19v-16
			c3.6-3.3,28.9-59,28.9-99.5c0-15.4-0.3-44.4-24.7-44.4c-13.9,0-25.3,14.6-25.3,35.3v25.3c-9.4,0.2-21.9,0.4-29.2,0.4V25.5
			c0-6.6-5.8-12.1-15-12.1c-3.9,0-8.9,1.1-8.9,3s2.8,2.5,2.8,10.5v46.6c-15-0.3-25-0.8-25-0.8c-8.1,0-3.1,18.5,5.8,18.5
			c0,0,7,0.6,19.2,0.6v74c-2.7,11.7-7.8,26-17.8,26c-7.2,0-7.2-10.2-7.2-12.7v-57c0-12.7-4.4-27.8-23.1-27.8
			c-13.6,0-23.6,11.8-31.1,27.3V109c0-6.6-5.8-12.1-15-12.1c-3.9,0-7.2,1.9-7.2,4.7c0,1.9,1.1,3.6,1.1,8.8v46.5c0,0,0,0,0,0.1
			c-3.3,16.8-12.2,34.7-33.9,34.7c-14.5,0-22-7.7-25.9-17.1c27-8,41.1-32.2,41.1-52.6c0-16.5-9.5-27.8-25-27.8
			c-21.4,0-42.5,26.2-42.5,61.2c0,34.4,23.9,54.6,49.2,54.6c17,0,28.8-5.8,37-13.7v1.6c0,10.2,7.8,12.1,13.3,12.1
			c8.1,0,7.8-6.6,7.8-11.9v-40.2c1.9-21.8,19.2-45.5,27.2-45.5c5.3,0,5.8,7.2,5.8,15.7v56c0,14,8.6,25.9,23.4,25.9
			c11.3,0,19.7-5.5,26-13.3c4.2,9.3,12.3,13.3,22.4,13.3c13,0,22.2-7.3,28.7-16.9c5,10.6,14.8,16.9,28.9,16.9
			c15.4,0,26.5-10.3,33.9-21.8c9.3,14,24.4,21.8,40,21.8c40.9,0,52-33.3,53.9-50.2C714.3,150,698.7,144.5,696.2,156.9z M573.6,42
			c0-4.4,1.1-11,4.2-11c4.4,0,7.5,8.3,7.5,26.5c0,15.2-5.8,51.5-11.7,63.1V42z M338.4,154.5c-0.6-11.6,3.6-41.9,17.2-41.9
			c3.6,0,5.8,3.6,5.8,9.7c0,16.5-8.9,30.9-22.8,37.2C338.7,157.8,338.4,156.1,338.4,154.5z M552.5,158.2c-0.5,1-0.8,2.3-1.1,3.7
			c-2.5,12.1-7.5,29.8-18.6,29.8c-5.8,0-9.5-3.9-9.5-12.7V91.6c6.9,0,19.6-0.1,29.2-0.2V158.2z M632.8,154.5
			c-0.6-11.6,3.6-41.9,17.2-41.9c3.6,0,5.8,3.6,5.8,9.7c0,16.5-8.9,30.9-22.8,37.2C633.1,157.8,632.8,156.1,632.8,154.5z
			 M844.7,65.4c0-39.1-27.5-62.6-69.5-62.6c-49.5,0-83.7,33.6-83.7,85.2c0,32.2,15.8,48.8,20.3,52.9c8.1,6.1,15.6-12.1,15.6-17.1
			c0-2.8-1.1-4.7-4.2-3.9c-0.6-0.8-10.6-9.4-10.6-33.6c0-33.6,18.1-62.8,62.8-62.8c34.2,0,47.8,21.5,47.8,42.4c0,40-32,48.5-45,48.5
			c-8.3,0-3.6,20.7,1.4,20.7c17.5,0,36.7,7.4,36.7,32.3c0,16-11.7,28.1-27.2,28.1c-16.4,0-25.3-10.5-25.3-36.9V56.3
			c0-6.6-6.4-12.1-15.6-12.1c-3.9,0-7.2,1.9-7.2,4.7c0,1.9,1.1,3.6,1.1,8.8v100.1c0,33.9,10.8,56.8,47.3,56.8
			c27.5,0,48.7-20.1,48.7-47.7c0-23.7-13.1-37.5-29.2-42.2C829.1,113.9,844.7,95.5,844.7,65.4z M0,303.2l111.2-91.9H46.3L0,303.2z"
			/>
	</g>
</g>
</svg>
