<?xml version="1.0" encoding="utf-8"?>
<!-- Generator: Adobe Illustrator 23.0.2, SVG Export Plug-In . SVG Version: 6.00 Build 0)  -->
<svg version="1.1" id="Capa_1" xmlns="http://www.w3.org/2000/svg" xmlns:xlink="http://www.w3.org/1999/xlink" x="0px" y="0px"
	 viewBox="0 0 512 512" style="enable-background:new 0 0 512 512;" xml:space="preserve">
<style type="text/css">
	.st0{fill:#3B3E43;}
</style>
<path class="st0" d="M375.2,266.8H163.2l46,46.6c5.4,5,5.5,10,0.3,15.2c-5.2,5.2-10.3,5.1-15.2-0.3l-65-64.9c-1.4-0.9-2.3-2-2.7-3.4
	c-0.4-1.4-0.7-2.7-0.7-4.1c0-1.4,0.2-2.7,0.7-4.1c0.5-1.4,1.4-2.5,2.7-3.4l65-64.9c5-5.4,10.1-5.5,15.2-0.3
	c5.2,5.2,5.1,10.2-0.3,15.2l-46,46.6h211.9c3.2,0,5.8,1,7.8,3c2,2,3,4.6,3,7.8c0,3.1,0,4.7,0,4.7s-1,1-3,3
	C380.9,265.8,378.3,266.8,375.2,266.8L375.2,266.8z"/>
</svg>
