<?xml version="1.0" encoding="utf-8"?>
<!-- Generator: Adobe Illustrator 23.0.2, SVG Export Plug-In . SVG Version: 6.00 Build 0)  -->
<svg version="1.1" id="Layer_1" xmlns="http://www.w3.org/2000/svg" xmlns:xlink="http://www.w3.org/1999/xlink" x="0px" y="0px"
	 viewBox="0 0 59.5 51.5" style="enable-background:new 0 0 59.5 51.5;" xml:space="preserve">
<style type="text/css">
	.st0{fill-rule:evenodd;clip-rule:evenodd;fill:#FFFFFF;}
</style>
<polygon class="st0" points="0,48.3 0.5,45.7 1.2,42.8 2.3,39.9 3.5,36.9 5,33.8 6.6,30.8 8.4,27.7 10.3,24.8 11,26 11.9,27.2 
	13,28.4 14.1,29.6 16.7,32 19.7,34.4 22.9,36.8 26.2,38.9 29.7,40.9 33,42.6 38.8,45.2 45.2,47.5 52.1,49.6 59.5,51.5 58.5,51.8 
	57.3,52.1 54.5,52.4 51.3,52.4 47.7,52.2 39.6,51.3 30.8,50 21.8,48.7 13.3,47.8 9.4,47.5 5.9,47.5 2.7,47.8 "/>
<polygon class="st0" points="12.4,21.7 13.1,20.6 13.9,19.5 15.6,17.2 19,13.2 21.9,17.2 25.6,21.8 29.5,26.4 31.3,28.4 33,30.1 
	38.3,34.9 44.1,39.6 50.1,44.1 56.5,48.5 48.2,46.1 44.3,44.8 40.5,43.4 36.9,42 33.5,40.4 30.3,38.7 27.3,37 25.3,35.5 23.1,33.8 
	20.9,31.9 18.7,29.8 16.7,27.7 14.9,25.6 13.4,23.6 12.8,22.6 "/>
<polygon class="st0" points="21.1,10.8 21.1,10.8 24.6,16.1 26.7,19 28.3,21.2 30.8,24.1 33.4,27 36.2,29.7 39.1,32.4 45.3,37.5 
	51.8,42.4 48.7,39.3 45.6,35.7 42.5,31.4 39.5,26.4 38.2,23.7 36.9,20.9 35.8,17.8 34.7,14.6 33.8,11.2 33.1,7.6 32.6,3.9 32.2,0 
	30.1,1.8 27.2,4.4 24,7.6 22.5,9.2 "/>
<polygon class="st0" points="19,13.2 22.3,17.8 26.3,22.5 30.8,27.2 35.6,31.8 40.7,36.4 45.9,40.8 51.2,44.8 56.5,48.5 50.6,45.9 
	44.8,42.7 39.2,38.8 34,34.5 29.3,29.7 27.1,27.2 25.1,24.5 23.3,21.8 21.6,19 20.2,16.1 "/>
<polygon class="st0" points="10.3,24.8 11,26 11.9,27.2 13,28.4 14.1,29.6 16.7,32 19.7,34.5 22.9,36.8 26.2,38.9 29.7,40.9 
	33,42.6 38.8,45.2 45.2,47.5 52.1,49.6 59.5,51.5 54.5,51.3 49.7,51 45.2,50.3 40.9,49.4 37,48.3 33.3,47 30,45.5 26.9,43.8 
	24.3,42.2 21.8,40.2 19.2,37.9 16.8,35.5 14.6,32.9 13.6,31.6 12.7,30.2 12,28.9 11.3,27.5 10.7,26.1 "/>
</svg>
