<?xml version="1.0" encoding="utf-8"?>
<!-- Generator: Adobe Illustrator 23.0.2, SVG Export Plug-In . SVG Version: 6.00 Build 0)  -->
<svg version="1.1" id="Layer_1" xmlns="http://www.w3.org/2000/svg" xmlns:xlink="http://www.w3.org/1999/xlink" x="0px" y="0px"
	 viewBox="0 0 4337 2616.4" style="enable-background:new 0 0 4337 2616.4;" xml:space="preserve">
<style type="text/css">
	.st0{fill-rule:evenodd;clip-rule:evenodd;fill:#FFFFFF;}
</style>
<polygon class="st0" points="2019.1,1379.3 2019.6,1376.7 2020.3,1373.8 2021.4,1370.9 2022.6,1367.9 2024.1,1364.8 2025.7,1361.8 
	2027.5,1358.7 2029.4,1355.8 2030.1,1357 2031,1358.2 2032.1,1359.4 2033.2,1360.6 2035.8,1363 2038.8,1365.4 2042,1367.8 
	2045.3,1369.9 2048.8,1371.9 2052.1,1373.6 2057.9,1376.2 2064.3,1378.5 2071.2,1380.6 2078.6,1382.5 2077.6,1382.8 2076.4,1383.1 
	2073.6,1383.4 2070.4,1383.4 2066.8,1383.2 2058.7,1382.3 2049.9,1381 2040.9,1379.7 2032.4,1378.8 2028.5,1378.5 2025,1378.5 
	2021.8,1378.8 "/>
<polygon class="st0" points="2031.5,1352.7 2032.2,1351.6 2033,1350.5 2034.7,1348.2 2038.1,1344.2 2041,1348.2 2044.7,1352.8 
	2048.6,1357.4 2050.4,1359.4 2052.1,1361.1 2057.4,1365.9 2063.2,1370.6 2069.2,1375.1 2075.6,1379.5 2067.3,1377.1 2063.4,1375.8 
	2059.6,1374.4 2056,1373 2052.6,1371.4 2049.4,1369.7 2046.4,1368 2044.4,1366.5 2042.2,1364.8 2040,1362.9 2037.8,1360.8 
	2035.8,1358.7 2034,1356.6 2032.5,1354.6 2031.9,1353.6 "/>
<polygon class="st0" points="2040.2,1341.8 2040.2,1341.8 2043.7,1347.1 2045.8,1350 2047.4,1352.2 2049.9,1355.1 2052.5,1358 
	2055.3,1360.7 2058.2,1363.4 2064.4,1368.5 2070.9,1373.4 2067.8,1370.3 2064.7,1366.7 2061.6,1362.4 2058.6,1357.4 2057.3,1354.7 
	2056,1351.9 2054.9,1348.8 2053.8,1345.6 2052.9,1342.2 2052.2,1338.6 2051.7,1334.9 2051.3,1331 2049.2,1332.8 2046.3,1335.4 
	2043.1,1338.6 2041.6,1340.2 "/>
<polygon class="st0" points="2038.1,1344.2 2041.4,1348.8 2045.4,1353.5 2049.9,1358.2 2054.7,1362.8 2059.8,1367.4 2065,1371.8 
	2070.3,1375.8 2075.6,1379.5 2069.7,1376.9 2063.9,1373.7 2058.3,1369.8 2053.1,1365.5 2048.4,1360.7 2046.2,1358.2 2044.2,1355.5 
	2042.4,1352.8 2040.7,1350 2039.3,1347.1 "/>
<polygon class="st0" points="2029.4,1355.8 2030.1,1357 2031,1358.2 2032.1,1359.4 2033.2,1360.6 2035.8,1363 2038.8,1365.5 
	2042,1367.8 2045.3,1369.9 2048.8,1371.9 2052.1,1373.6 2057.9,1376.2 2064.3,1378.5 2071.2,1380.6 2078.6,1382.5 2073.6,1382.3 
	2068.8,1382 2064.3,1381.3 2060,1380.4 2056.1,1379.3 2052.4,1378 2049.1,1376.5 2046,1374.8 2043.4,1373.2 2040.9,1371.2 
	2038.3,1368.9 2035.9,1366.5 2033.7,1363.9 2032.7,1362.6 2031.8,1361.2 2031.1,1359.9 2030.4,1358.5 2029.8,1357.1 "/>
</svg>
