<?xml version="1.0" encoding="utf-8"?>
<!-- Generator: Adobe Illustrator 23.0.2, SVG Export Plug-In . SVG Version: 6.00 Build 0)  -->
<svg version="1.1" id="Layer_1" xmlns="http://www.w3.org/2000/svg" xmlns:xlink="http://www.w3.org/1999/xlink" x="0px" y="0px"
	 viewBox="0 0 1702.5 272.6" style="enable-background:new 0 0 1702.5 272.6;" xml:space="preserve">
<style type="text/css">
	.st0{fill:#1A3356;}
</style>
<g id="Layer_2">
	<path class="st0" d="M148.8,136.7h59.7c-14.9-45.2-23-70.2-24.5-74.8c-8.4,18.8-15.6,34.3-21.5,46.3L148.8,136.7z M0,267.5l16-27.7
		l99.4-187.5l10.6-20.9c3.1-6.2,7.4-15,12.9-26.6c22.6,0.3,39.1,0.4,49.4,0.4c18.1,0,34.8-0.1,50.2-0.4l28,80.3l57.2,154.3
		l11.2,28.1c-22.2-0.3-35.7-0.4-40.4-0.4c-10.8,0-26.7,0.1-47.5,0.4c-5.6-21.2-13.8-46.2-24.5-74.8h-96.8
		c-11.1,22.6-22.6,47.6-34.5,74.8c-23.9-0.3-38.5-0.4-43.9-0.4C37.4,267.1,21.7,267.2,0,267.5z"/>
	<path class="st0" d="M356.1,267.5c7.4-103.1,11.2-182.3,11.2-237.9L367,4.7c22.5,0.3,37.4,0.4,45,0.4c3.5,0,17.3-0.1,41.4-0.4
		c-2.4,28.9-4.2,56.2-5.6,82c-1.8,35.9-3.1,69.5-3.9,100.8c-0.8,31.3-1.2,57.9-1.2,80l-39.3-0.4
		C395.6,267.1,379.8,267.2,356.1,267.5"/>
	<path class="st0" d="M644.3,114.6c17.5,0.3,34.3,0.4,50.2,0.4c27.1,0,48.4-0.1,63.7-0.4c-1.6,17.5-3.3,42.4-5,74.5
		c-1.6,32.2-2.7,56.4-3.1,72.8c-14.8,2.7-27,4.7-36.6,5.9c-9.7,1.2-21.3,2.3-34.9,3.3c-13.6,1-25.7,1.4-36.4,1.4
		c-17.5,0-34.5-1.4-51.3-4.2c-16.8-2.8-31.8-7.4-45.2-13.7c-13.3-6.3-24.3-14.8-33.2-25.6c-8.9-10.8-15.7-23.6-20.5-38.3
		c-4.8-14.8-7.2-30-7.2-45.8c0-26,6.5-50.2,19.4-72.5c12.9-22.3,31.6-40,55.9-53C584.4,6.5,615.8,0,654.3,0
		c28.1,0,59.1,3.4,93.3,10.2c0,18.6,0.8,39.4,2.4,62.2c-9.3-3.1-16.7-5.4-22.4-7c-5.7-1.6-12.4-3.1-20-4.4c-7.6-1.4-14.9-2.4-21.7-3
		c-6.9-0.7-13-1-18.4-1c-14.1,0-27.4,2-40,6C614.8,67.2,604,73.4,595,81.8c-9.1,8.3-15.8,18.4-20.3,30c-4.5,11.7-6.8,24-6.8,36.9
		c0,13.1,2.6,24.9,7.7,35.2c5.2,10.3,13.3,18.1,24.5,23.5c11.2,5.4,23.6,8.1,37.4,8.1c11.4,0,24-1.7,37.6-5.1l2-41
		c-8.3-0.3-13.2-0.4-14.7-0.4l-20.4,0.2l1.3-23.7c0.1-2.6,0.3-6.3,0.6-11.1C644.2,129.6,644.3,123,644.3,114.6"/>
	<path class="st0" d="M796.9,267.5c3.2-33.1,5.5-60.8,7-83.2c1.4-22.3,3-52,4.4-89c1.5-37,2.2-61.5,2.2-73.6l-0.2-16.9
		c30.3,0.3,66.9,0.4,109.8,0.4c39.6,0,74.5-0.1,104.8-0.4l-0.4,6.4c-0.1,1.5-0.5,7.1-0.9,16.7l-1.2,20.9c-0.3,4.5-0.4,9-0.4,13.7
		c-24.7-1.1-45.4-1.6-62.2-1.6c-18.4,0-30.9,0.1-37.4,0.1c-6.5,0.1-16.5,0.3-30.3,0.9L890,106c15.2,0.4,32.8,0.6,52.8,0.6
		c7.2,0,26.3-0.5,57.3-1.4c-1.3,16.4-2.5,36-3.7,58.7c-22.2-0.3-39.3-0.4-51.2-0.4c-17.7,0-37.5,0.4-59.5,1.2l-2.4,46.9h22.1
		c6.6,0,20.1-0.2,40.6-0.6l39.8-1c5.9-0.1,15.8-0.7,29.6-1.6c-1.5,19-2.8,38.7-3.9,59.1c-31.2-0.3-65.5-0.4-102.8-0.4l-84.6,0.2
		L796.9,267.5z"/>
	<path class="st0" d="M1057,267.5l3.8-40.4l7.5-137l2.1-55.3v-30c19.9,0.3,37.5,0.4,52.7,0.4c10.9,0,26.3-0.1,46-0.4l82.7,149.5
		l11.4,21.9c1.3-21.5,2.6-51.8,4-90.7c1.4-38.9,2-65.8,2-80.7c15.8,0.3,28.5,0.4,38,0.4c4.3,0,16.9-0.1,37.7-0.4l-4.5,57.4
		l-8.5,159.3l-1.1,46c-16.7-0.3-32.3-0.4-46.9-0.4c-12.1,0-28.8,0.1-50.1,0.4c-6.7-12.6-11.6-21.7-14.8-27.4l-32.3-54.9
		c-10.7-18-20.5-35.2-29.5-51.6c-5.9-10.4-11.9-21.9-18.3-34.3l-3.9,91.3l-1.8,76.9c-16-0.3-28.1-0.4-36.4-0.4
		C1089.6,267.1,1076.4,267.2,1057,267.5"/>
	<path class="st0" d="M1381.1,267.5c7.4-103.1,11.2-182.3,11.2-237.9L1392,4.7c22.5,0.3,37.4,0.4,45,0.4c3.5,0,17.3-0.1,41.4-0.4
		c-2.4,28.9-4.2,56.2-5.6,82c-1.8,35.9-3.1,69.5-3.9,100.8c-0.8,31.3-1.2,57.9-1.2,80l-39.3-0.4
		C1420.6,267.1,1404.8,267.2,1381.1,267.5"/>
	<path class="st0" d="M1512.4,263.5c-1.6-27.2-3.6-49-5.8-65.4c14.4,6.4,27.4,10.8,38.7,13.2c11.3,2.5,21.2,3.7,29.7,3.7
		c11.3,0,20.2-1.6,26.8-4.9c6.6-3.3,10-8.1,10-14.5c0-2.2-0.3-4.3-1-6.2c-0.7-2-1.8-4.3-3.7-6.8c-1.8-2.5-4.4-5.2-7.7-8.1
		l-36.5-31.6c-8.5-7.2-14.5-12.3-17.9-15.6c-6.8-6.6-12.2-12.7-16-18.3c-3.8-5.6-6.6-11.4-8.3-17.2c-1.8-5.8-2.6-12-2.6-18.6
		c0-7.8,1.4-15.5,4.1-23c2.8-7.5,6.9-14.5,12.5-21.1c5.5-6.5,12.8-12.1,22-16.9c9.1-4.8,18.8-8,29.3-9.7c10.4-1.8,21.1-2.6,32.2-2.6
		c21.7,0,45.4,2.5,71,7.5c0.3,8.9,0.8,16.9,1.3,24.3c0.5,7.4,1.8,20.3,3.7,38.7c-11.9-4.7-22.7-8-32.6-9.8
		c-9.8-1.8-18.3-2.8-25.3-2.8c-10,0-18.4,1.8-25.1,5.6c-6.6,3.7-10,8.3-10,13.9c0,2.6,0.5,5.1,1.6,7.5c1,2.4,3,5.3,5.8,8.6
		c2.8,3.2,6.6,6.8,11.2,10.8c4.7,3.9,11.9,9.7,21.9,17.4l13.9,11c4.1,3.3,8.6,7.4,13.4,12.1c4.7,4.8,8.9,9.5,12.3,14
		c3.5,4.7,6.2,8.9,8.1,12.7c1.8,3.8,3.3,7.7,4.1,11.6c0.9,3.9,1.4,8.1,1.4,12.6c0,11.6-2.8,22.5-8.3,33
		c-5.5,10.5-13.4,19.1-23.5,25.8c-10.2,6.8-21.3,11.4-33.5,14.1c-12.1,2.7-24.9,4.1-38.4,4.1
		C1570.5,272.6,1544.1,269.6,1512.4,263.5"/>
</g>
</svg>
