<?xml version="1.0" encoding="utf-8"?>
<!-- Generator: Adobe Illustrator 23.0.2, SVG Export Plug-In . SVG Version: 6.00 Build 0)  -->
<svg version="1.1" id="Capa_1" fill="#156074" xmlns="http://www.w3.org/2000/svg" xmlns:xlink="http://www.w3.org/1999/xlink" x="0px" y="0px"
	 viewBox="0 0 47.2 47.2" style="enable-background:new 0 0 47.2 47.2;" xml:space="preserve">
<g>
	<path d="M15.8,40.7c-3.9,0-7.1-1.8-7.9-5.6c-1-4.4-1.4-8.9,0.7-13.2c0.8-1.5,2.1-2.5,3.5-3.4c1.5-0.9,2.5-2,2.1-3.9
		c-0.1-0.7,0.1-1.4,0.1-2.1c0-0.3-0.5-0.6-0.8-0.9c-0.2,0.3-0.7,0.7-0.6,0.9c0.3,2.9-1.4,4.3-3.7,5.3c-1.3,0.6-2.7,1-4,1.3
		c-1.3,0.3-2.6,0-3.6-0.9c-2.2-1.7-2.1-5,0.4-6.6c1.7-1.1,3.6-1.9,5.5-2.6c4.9-1.8,10.1-2.5,15.2-2.6c3.1-0.1,6.3,0.4,9.4,0.7
		c4.1,0.4,8,1.8,11.7,3.6c1,0.5,2,1.3,2.6,2.3c1.8,3-0.4,6.3-3.9,6.1c-2.7-0.2-5.1-1.1-7.1-3c-0.9-0.9-1.4-1.9-1.2-3.2
		c0-0.3,0.1-0.6,0-0.8c-0.2-0.3-0.5-0.5-0.8-0.6c-0.1,0-0.5,0.4-0.6,0.6c-0.1,0.3,0,0.7,0,1c0,0.5,0.2,1.1,0.1,1.6
		c-0.4,1.8,0.5,2.7,1.9,3.5c1.9,1.2,3.6,2.7,4.4,4.9c0.7,1.8,0.8,10.1,0.1,11.9c-1.3,3.2-3.9,5.6-8,5.5C30,40.6,18.4,40.7,15.8,40.7
		z M23.5,31.8c3-0.1,5.7-1,7.7-3.2c2.1-2.2,2.2-4.7,0.6-7.2c-1-1.5-2.4-2.3-4-3c-4-1.7-8.9-0.8-11.8,2c-2.5,2.5-2.6,5.8-0.1,8.3
		C18.1,30.9,20.8,31.6,23.5,31.8z M23.6,10.8C23.6,10.8,23.6,10.8,23.6,10.8c-1.3,0-2.7,0-4,0c-0.8,0-1.2,0.4-1.2,1.2
		c0,0.2,0,0.5,0,0.7c0.1,0.3,0.2,0.7,0.2,1c0.3-0.1,0.7-0.2,1-0.4c2-1.4,6-1.4,8,0c0.3,0.2,0.6,0.3,1,0.4c0.1-0.4,0.2-0.7,0.2-1.1
		c0-0.2,0-0.5,0-0.7c0-0.8-0.4-1.2-1.3-1.1C26.2,10.8,24.9,10.8,23.6,10.8z"/>
	<path d="M24.1,27.8c-1.9-0.1-3.2-0.4-4.3-1.4c-1.8-1.5-1.8-3.7,0-5.3c2-1.7,5.5-1.7,7.4-0.1c2.2,1.8,2,4.5-0.5,5.9
		C25.8,27.5,24.7,27.6,24.1,27.8z"/>
</g>
</svg>
