<?xml version="1.0" encoding="utf-8"?>
<!-- Generator: Adobe Illustrator 23.0.2, SVG Export Plug-In . SVG Version: 6.00 Build 0)  -->
<svg version="1.1" id="Layer_1" fill="#06c7bb"  xmlns="http://www.w3.org/2000/svg" xmlns:xlink="http://www.w3.org/1999/xlink" x="0px" y="0px"
	 viewBox="0 0 200 200" style="enable-background:new 0 0 200 200;" xml:space="preserve">
<path d="M41.4,146.7l46.5-47l-46.5-47c-4.2-3.9-4.3-7.8-0.3-11.9c4-4,8-4,11.9,0.3l47,46.5L147,41c3.9-4.2,7.8-4.3,11.9-0.3
	c4,4.1,4,8-0.3,11.9l-46.5,47l46.5,47c4.2,3.9,4.3,7.8,0.3,11.9c-4.1,4.1-8,4-11.9-0.3l-47-46.5l-47,46.5c-3.9,4.2-7.8,4.3-11.9,0.3
	C37.1,154.5,37.2,150.5,41.4,146.7L41.4,146.7z"/>
</svg>
