<?xml version="1.0" encoding="utf-8"?>
<!-- Generator: Adobe Illustrator 23.0.2, SVG Export Plug-In . SVG Version: 6.00 Build 0)  -->
<svg version="1.1" id="Layer_1" fill="#156074" xmlns="http://www.w3.org/2000/svg" xmlns:xlink="http://www.w3.org/1999/xlink" x="0px" y="0px"
	 viewBox="0 0 59.1 105.1" style="enable-background:new 0 0 59.1 105.1;" xml:space="preserve">
<path d="M6.6,105.1c-1.8,0-3.3-0.7-4.6-2c-1.3-1.3-2-2.8-2-4.6v-92C0,4.8,0.6,3.3,2,2c1.3-1.3,2.8-2,4.6-2h46c1.8,0,3.3,0.7,4.6,2
	c1.3,1.3,2,2.8,2,4.6v92c0,1.8-0.7,3.3-2,4.6c-1.3,1.3-2.8,2-4.6,2H6.6z M30,98.6c1,0,1.8-0.4,2.6-1.1c0.8-0.8,1.1-1.6,1.1-2.6
	c0-1-0.4-1.8-1.1-2.6c-0.8-0.8-1.6-1.1-2.6-1.1c-1,0-1.8,0.4-2.6,1.1c-0.8,0.8-1.1,1.6-1.1,2.6c0,1,0.4,1.8,1.1,2.6
	C28.2,98.2,29,98.6,30,98.6z M36.1,6.6c-1,0-1.7,0.3-2.4,0.9c-0.6,0.6-0.9,1.4-0.9,2.4c0,1,0.3,1.7,0.9,2.4c0.6,0.6,1.4,0.9,2.4,0.9
	h6.6c1,0,1.7-0.3,2.4-0.9c0.6-0.6,0.9-1.4,0.9-2.4c0-1-0.3-1.7-0.9-2.4s-1.4-0.9-2.4-0.9H36.1z M23,6.6c-1,0-1.7,0.3-2.4,0.9
	c-0.6,0.6-0.9,1.4-0.9,2.4c0,1,0.3,1.7,0.9,2.4c0.6,0.6,1.4,0.9,2.4,0.9c1,0,1.7-0.3,2.4-0.9c0.6-0.6,0.9-1.4,0.9-2.4
	c0-1-0.3-1.7-0.9-2.4C24.7,6.9,24,6.6,23,6.6z M6.6,85.4h46V19.7h-46V85.4z"/>
</svg>
