<?xml version="1.0" encoding="utf-8"?>
<!-- Generator: Adobe Illustrator 23.0.2, SVG Export Plug-In . SVG Version: 6.00 Build 0)  -->
<svg version="1.1" fill="#06c7bb" id="Layer_1" xmlns="http://www.w3.org/2000/svg" xmlns:xlink="http://www.w3.org/1999/xlink" x="0px" y="0px"
	 viewBox="0 0 200 200" style="enable-background:new 0 0 200 200;" xml:space="preserve">
<path d="M137.8,105.1c1.6-1.4,2.4-3.1,2.4-5.1c0-2-0.8-3.7-2.4-5.1L79,36.1c-1.4-1.4-3.1-2.1-5.1-2.1c-2,0-3.7,0.7-5.1,2.1l-6.7,6.7
	c-1.4,1.4-2.2,3.1-2.3,5.1c-0.1,2,0.6,3.7,2,5.1l46.9,46.9l-46.9,46.9c-1.4,1.4-2.1,3.1-2,5.1c0.1,2,0.9,3.7,2.3,5.1l6.7,6.7
	c1.4,1.4,3.1,2.1,5.1,2.1c2,0,3.7-0.7,5.1-2.1L137.8,105.1z"/>
</svg>
