<?xml version="1.0" encoding="utf-8"?>
<!-- Generator: Adobe Illustrator 23.0.2, SVG Export Plug-In . SVG Version: 6.00 Build 0)  -->
<svg version="1.1" id="Capa_1" xmlns="http://www.w3.org/2000/svg" xmlns:xlink="http://www.w3.org/1999/xlink" x="0px" y="0px"
	 viewBox="0 0 512 512" fill="#ffffff" style="enable-background:new 0 0 512 512;" xml:space="preserve">
<style type="text/css">
	.st0{fill:#ffffff;}
</style>
<path class="st0" d="M243.8,261c3.3,3.3,7.4,5,12.2,5c4.8,0,8.8-1.7,12.2-5l97.5-97.5c3.3-3.3,5-7.4,5-12.2c0-4.8-1.7-8.8-5-12.2
	l-16.5-15.8c-3.3-3.3-7.4-5-12.2-5c-4.8,0-8.8,1.7-12.2,5L256,192.2l-68.8-68.8c-3.3-3.3-7.4-5-12.2-5c-4.8,0-8.8,1.7-12.2,5
	l-16.5,15.8c-3.3,3.3-5,7.4-5,12.2c0,4.8,1.7,8.8,5,12.2L243.8,261z M268.2,398.6c-3.3,3.3-7.4,5-12.2,5c-4.8,0-8.8-1.7-12.2-5
	l-97.5-97.5c-3.3-3.3-5-7.4-5-12.2c0-4.8,1.7-8.8,5-12.2l16.5-15.8c3.3-3.3,7.4-5,12.2-5c4.8,0,8.8,1.7,12.2,5l68.8,68.8l69.5-68.8
	c2.9-3.3,6.7-5,11.5-5c4.8,0,8.8,1.7,12.2,5l16.5,15.8c3.3,3.3,5,7.4,5,12.2c0,4.8-1.7,8.8-5,12.2L268.2,398.6z"/>
</svg>
