<?xml version="1.0" encoding="utf-8"?>
<!-- Generator: Adobe Illustrator 23.0.2, SVG Export Plug-In . SVG Version: 6.00 Build 0)  -->
<svg version="1.1" id="Capa_1" xmlns="http://www.w3.org/2000/svg" xmlns:xlink="http://www.w3.org/1999/xlink" x="0px" y="0px"
	 viewBox="0 0 512 512" style="enable-background:new 0 0 512 512;" xml:space="preserve">
<g>
	<g>
		<path d="M15,16C6.7,16,0,22.7,0,31v390c0,8.3,6.7,15,15,15h15V91c0-24.8,20.2-45,45-45h168.5c2.3-11.2,7.2-21.2,13.9-30
			C171.8,16,98.5,16,15,16z"/>
	</g>
</g>
<g>
	<g>
		<path d="M437,16c-34.2,0-26,0-60.4,0c6.6,8.8,11.6,18.8,13.9,30H452V31C452,22.7,445.3,16,437,16z"/>
	</g>
</g>
<g>
	<g>
		<path d="M497,76H390.5c-7,34.2-37.3,60-73.5,60c-10,0-19.5-2-28.2-5.6l-19.3,28.9c-4.5,6.8-13.8,8.8-20.8,4.2
			c-6.9-4.6-8.8-13.9-4.2-20.8l19.3-28.9c-10.1-10.2-17.3-23.2-20.3-37.8H75c-8.3,0-15,6.7-15,15v390c0,8.3,6.7,15,15,15h287V361
			c0-8.3,6.7-15,15-15h135V91C512,82.7,505.3,76,497,76z M227,406h-92c-8.3,0-15-6.7-15-15c0-8.3,6.7-15,15-15h92
			c8.3,0,15,6.7,15,15S235.3,406,227,406z M287,406c-8.3,0-15-6.7-15-15c0-8.3,6.7-15,15-15s15,6.7,15,15
			C302,399.3,295.3,406,287,406z M317,346H135c-8.3,0-15-6.7-15-15c0-8.3,6.7-15,15-15h182c8.3,0,15,6.7,15,15S325.3,346,317,346z
			 M437,286H135c-8.3,0-15-6.7-15-15c0-8.3,6.7-15,15-15h302c8.3,0,15,6.7,15,15S445.3,286,437,286z M437,226H135
			c-8.3,0-15-6.7-15-15s6.7-15,15-15h302c8.3,0,15,6.7,15,15S445.3,226,437,226z"/>
	</g>
</g>
<g>
	<g>
		<path d="M392,376L392,376v119c16.3-2.1,31.4-9.2,43.2-21l54.8-54.8c11.8-11.8,18.9-26.9,21-43.2H392z"/>
	</g>
</g>
<g>
	<g>
		<path d="M317,16c-24.8,0-45,20.2-45,45s20.2,45,45,45s45-20.2,45-45S341.8,16,317,16z"/>
	</g>
</g>
</svg>
